<mxfile host="app.diagrams.net" modified="2023-03-08T05:41:12.386Z" agent="5.0 (Windows NT 10.0; Win64; x64) AppleWebKit/537.36 (KHTML, like Gecko) Chrome/108.0.0.0 Safari/537.36 Edg/108.0.1462.54" etag="vSkIdoh736RdoSOYencv" version="20.8.20" type="github">
  <diagram name="第 1 页" id="oOq05C12liTwOPy7Zc_3">
    <mxGraphModel dx="1050" dy="581" grid="1" gridSize="10" guides="1" tooltips="1" connect="1" arrows="1" fold="1" page="1" pageScale="1" pageWidth="827" pageHeight="1169" math="0" shadow="0">
      <root>
        <mxCell id="0" />
        <mxCell id="1" parent="0" />
        <mxCell id="LIePsMHB0_9Zie5RSoGt-7" style="edgeStyle=orthogonalEdgeStyle;rounded=0;orthogonalLoop=1;jettySize=auto;html=1;exitX=1;exitY=0.5;exitDx=0;exitDy=0;entryX=0;entryY=0.5;entryDx=0;entryDy=0;endArrow=none;endFill=0;" parent="1" source="LIePsMHB0_9Zie5RSoGt-1" target="LIePsMHB0_9Zie5RSoGt-5" edge="1">
          <mxGeometry relative="1" as="geometry">
            <mxPoint x="290" y="250" as="targetPoint" />
          </mxGeometry>
        </mxCell>
        <mxCell id="LIePsMHB0_9Zie5RSoGt-1" value="Baseline" style="rounded=1;whiteSpace=wrap;html=1;" parent="1" vertex="1">
          <mxGeometry x="120" y="320" width="120" height="60" as="geometry" />
        </mxCell>
        <mxCell id="LIePsMHB0_9Zie5RSoGt-6" style="edgeStyle=orthogonalEdgeStyle;rounded=0;orthogonalLoop=1;jettySize=auto;html=1;exitX=1;exitY=0.5;exitDx=0;exitDy=0;entryX=0;entryY=0.5;entryDx=0;entryDy=0;endArrow=none;endFill=0;" parent="1" source="LIePsMHB0_9Zie5RSoGt-2" target="LIePsMHB0_9Zie5RSoGt-5" edge="1">
          <mxGeometry relative="1" as="geometry" />
        </mxCell>
        <mxCell id="LIePsMHB0_9Zie5RSoGt-26" style="edgeStyle=orthogonalEdgeStyle;rounded=0;orthogonalLoop=1;jettySize=auto;html=1;exitX=1;exitY=0.5;exitDx=0;exitDy=0;endArrow=classic;endFill=1;entryX=0;entryY=0.5;entryDx=0;entryDy=0;strokeColor=#000000;" parent="1" source="LIePsMHB0_9Zie5RSoGt-2" target="LIePsMHB0_9Zie5RSoGt-25" edge="1">
          <mxGeometry relative="1" as="geometry">
            <mxPoint x="480" y="130.16666666666674" as="targetPoint" />
          </mxGeometry>
        </mxCell>
        <mxCell id="LIePsMHB0_9Zie5RSoGt-27" value="RawData" style="edgeLabel;html=1;align=center;verticalAlign=middle;resizable=0;points=[];fontColor=default;" parent="LIePsMHB0_9Zie5RSoGt-26" vertex="1" connectable="0">
          <mxGeometry x="0.1432" y="1" relative="1" as="geometry">
            <mxPoint as="offset" />
          </mxGeometry>
        </mxCell>
        <mxCell id="LIePsMHB0_9Zie5RSoGt-2" value="RawData" style="rounded=1;whiteSpace=wrap;html=1;" parent="1" vertex="1">
          <mxGeometry x="120" y="90" width="120" height="60" as="geometry" />
        </mxCell>
        <mxCell id="LIePsMHB0_9Zie5RSoGt-28" style="edgeStyle=orthogonalEdgeStyle;rounded=0;orthogonalLoop=1;jettySize=auto;html=1;exitX=0.5;exitY=0;exitDx=0;exitDy=0;endArrow=classic;endFill=1;strokeColor=#000000;" parent="1" source="LIePsMHB0_9Zie5RSoGt-3" target="LIePsMHB0_9Zie5RSoGt-25" edge="1">
          <mxGeometry relative="1" as="geometry" />
        </mxCell>
        <mxCell id="LIePsMHB0_9Zie5RSoGt-31" value="(1000-α)/1000*Δ" style="edgeLabel;html=1;align=center;verticalAlign=middle;resizable=0;points=[];fontColor=#000000;" parent="LIePsMHB0_9Zie5RSoGt-28" vertex="1" connectable="0">
          <mxGeometry x="-0.3359" relative="1" as="geometry">
            <mxPoint y="-14" as="offset" />
          </mxGeometry>
        </mxCell>
        <mxCell id="LIePsMHB0_9Zie5RSoGt-3" value="DeltaΔ=Baseline-Rawdata" style="rounded=1;whiteSpace=wrap;html=1;resizeWidth=1;resizeHeight=1;" parent="1" vertex="1">
          <mxGeometry x="470" y="202" width="120" height="60" as="geometry" />
        </mxCell>
        <mxCell id="LIePsMHB0_9Zie5RSoGt-8" style="edgeStyle=orthogonalEdgeStyle;rounded=0;orthogonalLoop=1;jettySize=auto;html=1;entryX=0;entryY=0.5;entryDx=0;entryDy=0;" parent="1" source="LIePsMHB0_9Zie5RSoGt-5" target="LIePsMHB0_9Zie5RSoGt-3" edge="1">
          <mxGeometry relative="1" as="geometry" />
        </mxCell>
        <mxCell id="LIePsMHB0_9Zie5RSoGt-5" value="" style="shape=image;html=1;verticalAlign=top;verticalLabelPosition=bottom;labelBackgroundColor=#ffffff;imageAspect=0;aspect=fixed;image=https://cdn4.iconfinder.com/data/icons/ionicons/512/icon-ios7-minus-outline-128.png" parent="1" vertex="1">
          <mxGeometry x="320" y="205" width="54" height="54" as="geometry" />
        </mxCell>
        <mxCell id="LIePsMHB0_9Zie5RSoGt-13" value="Baseline" style="rounded=1;whiteSpace=wrap;html=1;" parent="1" vertex="1">
          <mxGeometry x="770" y="202" width="120" height="60" as="geometry" />
        </mxCell>
        <mxCell id="LIePsMHB0_9Zie5RSoGt-32" style="edgeStyle=orthogonalEdgeStyle;rounded=0;orthogonalLoop=1;jettySize=auto;html=1;exitX=1;exitY=0.5;exitDx=0;exitDy=0;endArrow=classic;endFill=1;entryX=-0.003;entryY=0.394;entryDx=0;entryDy=0;entryPerimeter=0;fontColor=#007FFF;strokeColor=#000000;" parent="1" source="LIePsMHB0_9Zie5RSoGt-25" target="LIePsMHB0_9Zie5RSoGt-13" edge="1">
          <mxGeometry relative="1" as="geometry">
            <mxPoint x="760" y="220" as="targetPoint" />
          </mxGeometry>
        </mxCell>
        <mxCell id="LIePsMHB0_9Zie5RSoGt-33" value="update" style="edgeLabel;html=1;align=center;verticalAlign=middle;resizable=0;points=[];fontColor=#000000;" parent="LIePsMHB0_9Zie5RSoGt-32" vertex="1" connectable="0">
          <mxGeometry x="-0.1391" y="-1" relative="1" as="geometry">
            <mxPoint as="offset" />
          </mxGeometry>
        </mxCell>
        <mxCell id="LIePsMHB0_9Zie5RSoGt-25" value="" style="shape=image;html=1;verticalAlign=top;verticalLabelPosition=bottom;labelBackgroundColor=#ffffff;imageAspect=0;aspect=fixed;image=https://cdn4.iconfinder.com/data/icons/ionicons/512/icon-ios7-plus-outline-128.png" parent="1" vertex="1">
          <mxGeometry x="503" y="93" width="54" height="54" as="geometry" />
        </mxCell>
        <mxCell id="LIePsMHB0_9Zie5RSoGt-29" value="Δ&amp;lt;threshold" style="text;html=1;strokeColor=none;fillColor=none;align=center;verticalAlign=middle;whiteSpace=wrap;rounded=0;fontColor=#000000;" parent="1" vertex="1">
          <mxGeometry x="540" y="175" width="60" height="30" as="geometry" />
        </mxCell>
        <mxCell id="LIePsMHB0_9Zie5RSoGt-36" value="" style="shape=image;html=1;verticalAlign=top;verticalLabelPosition=bottom;labelBackgroundColor=#ffffff;imageAspect=0;aspect=fixed;image=https://cdn4.iconfinder.com/data/icons/ionicons/512/icon-ios7-plus-outline-128.png;fontColor=#007FFF;imageBackground=none;imageBorder=none;" parent="1" vertex="1">
          <mxGeometry x="503" y="93" width="54" height="54" as="geometry" />
        </mxCell>
      </root>
    </mxGraphModel>
  </diagram>
</mxfile>
